<?xml version="1.0" encoding="UTF-8"?>
<svg version="1.1" xmlns="http://www.w3.org/2000/svg" width="128" height="128">
<path d="M0 0 C0.99 0 1.98 0 3 0 C3.5878125 1.175625 3.5878125 1.175625 4.1875 2.375 C6.23709673 5.34338147 6.83474389 5.50382467 10.1875 6.3125 C11.445625 6.539375 12.70375 6.76625 14 7 C13.5359375 8.0828125 13.5359375 8.0828125 13.0625 9.1875 C11.29460685 13.86721717 10.74254665 17.10990362 12 22 C9 23 9 23 6 22 C6 22.99 6 23.98 6 25 C7.19625 24.7525 8.3925 24.505 9.625 24.25 C17.30041054 23.37281022 24.63420458 26.24499336 31.66667175 29.07197571 C34 31 34 31 34.60127258 34.54972839 C34.61578052 36.05029526 34.6024399 37.55128053 34.56762695 39.05151367 C34.56835709 39.87125168 34.56908722 40.69098969 34.56983948 41.53556824 C34.56635397 44.24703993 34.52744904 46.95679696 34.48828125 49.66796875 C34.47895651 51.54697226 34.4718388 53.42598793 34.46684265 55.30500793 C34.44774611 60.25208055 34.39862246 65.19841988 34.34332275 70.14520264 C34.2921875 75.19240396 34.26934085 80.23972371 34.24414062 85.28710938 C34.19050628 95.19172855 34.10516136 105.09580331 34 115 C29.38633785 114.43482108 24.83891511 113.81685067 20.26953125 112.95703125 C14.04776311 111.90721164 7.98860532 111.65652305 1.6875 111.6875 C0.60025635 111.68806396 -0.4869873 111.68862793 -1.60717773 111.68920898 C-9.07941546 111.77421548 -15.77857778 112.66418924 -23.05078125 114.390625 C-27.17156605 115.24207192 -29.88745256 114.89105195 -34 114 C-41.78533954 112.31983923 -49.22698799 111.6479047 -57.1875 111.6875 C-58.81691528 111.68943359 -58.81691528 111.68943359 -60.47924805 111.69140625 C-68.22807009 111.78329179 -75.44598084 112.61246744 -82.98828125 114.34375 C-86 115 -86 115 -90 115 C-90 87.28 -90 59.56 -90 31 C-82 27 -82 27 -77 26 C-77 18.74 -77 11.48 -77 4 C-71.99689371 2.99937874 -68.74143699 3.38899056 -63.9375 4.5625 C-63.18525146 4.74594971 -62.43300293 4.92939941 -61.65795898 5.1184082 C-46.79283055 8.96341158 -36.54561012 17.19358748 -27 29 C-25.83984375 28.58427734 -25.83984375 28.58427734 -24.65625 28.16015625 C-9.04794521 22.73202055 -9.04794521 22.73202055 -3 25 C-3.495 23.515 -3.495 23.515 -4 22 C-5.32 22.33 -6.64 22.66 -8 23 C-8.84857919 20.45426244 -9.03698622 19.14794488 -8.375 16.5 C-7.70049686 13.92611863 -7.70049686 13.92611863 -9.4375 11.875 C-10.2109375 10.946875 -10.2109375 10.946875 -11 10 C-11 9.01 -11 8.02 -11 7 C-10.18595703 6.74476562 -10.18595703 6.74476562 -9.35546875 6.484375 C-4.9564256 4.99424867 -2.61292985 3.98815608 0 0 Z " fill="#323245" transform="translate(92,11)"/>
<path d="M0 0 C0.99 0 1.98 0 3 0 C3.391875 0.78375 3.78375 1.5675 4.1875 2.375 C6.23709673 5.34338147 6.83474389 5.50382467 10.1875 6.3125 C11.445625 6.539375 12.70375 6.76625 14 7 C13.690625 7.721875 13.38125 8.44375 13.0625 9.1875 C11.29460685 13.86721717 10.74254665 17.10990362 12 22 C9 23 9 23 6 22 C6 22.99 6 23.98 6 25 C6.99 25 7.98 25 9 25 C9 25.66 9 26.32 9 27 C10.2375 27.0825 11.475 27.165 12.75 27.25 C18.14030528 27.83366363 27.04313268 29.04313268 31 33 C31.09417773 35.08619022 31.11742878 37.17560477 31.11352539 39.26391602 C31.11367142 39.91755127 31.11381744 40.57118652 31.1139679 41.24462891 C31.11326883 43.41442128 31.10547678 45.58412879 31.09765625 47.75390625 C31.09579205 49.25463311 31.09436816 50.75536057 31.09336853 52.25608826 C31.08954352 56.21318226 31.0797134 60.17023978 31.06866455 64.12731934 C31.05845006 68.16234849 31.05387083 72.19738353 31.04882812 76.23242188 C31.03809111 84.15496469 31.0210149 92.07747781 31 100 C30.31084503 99.79191208 29.62169006 99.58382416 28.91165161 99.36943054 C28.00897552 99.09758438 27.10629944 98.82573822 26.17626953 98.5456543 C25.28086456 98.27569138 24.38545959 98.00572845 23.46292114 97.72758484 C7.4418921 92.99472611 -7.23170405 94.67587479 -23 99 C-24.98 99.495 -24.98 99.495 -27 100 C-27 77.89 -27 55.78 -27 33 C-13.5 27.375 -13.5 27.375 -6 27 C-6 26.34 -6 25.68 -6 25 C-5.01 25 -4.02 25 -3 25 C-3.33 24.01 -3.66 23.02 -4 22 C-5.32 22.33 -6.64 22.66 -8 23 C-8.84857919 20.45426244 -9.03698622 19.14794488 -8.375 16.5 C-7.70049686 13.92611863 -7.70049686 13.92611863 -9.4375 11.875 C-10.2109375 10.946875 -10.2109375 10.946875 -11 10 C-11 9.01 -11 8.02 -11 7 C-10.45730469 6.82984375 -9.91460937 6.6596875 -9.35546875 6.484375 C-4.9564256 4.99424867 -2.61292985 3.98815608 0 0 Z " fill="#FAFAFA" transform="translate(92,11)"/>
<path d="M0 0 C5.59056605 0 9.58905088 0.4111472 14.75 2.0625 C15.44665771 2.28437988 16.14331543 2.50625977 16.86108398 2.73486328 C28.74509521 6.74046366 38.62893046 14.12495193 45 25 C45.48101807 28.18917847 45.48101807 28.18917847 45.45410156 31.64794922 C45.45379944 32.94884491 45.45349731 34.2497406 45.45318604 35.59005737 C45.43276397 36.99494042 45.41190006 38.39981711 45.390625 39.8046875 C45.38315695 41.25342017 45.37746668 42.702163 45.37347412 44.15090942 C45.35826185 47.94873347 45.31901943 51.74593757 45.2746582 55.54351807 C45.23360944 59.42476009 45.21544272 63.30610309 45.1953125 67.1875 C45.15251971 74.79194812 45.08432337 82.39588692 45 90 C44.34 90 43.68 90 43 90 C41.84375 88.49609375 41.84375 88.49609375 40.5 86.4375 C30.86228483 73.29304991 15.14537759 70.24543806 0 67 C0 44.89 0 22.78 0 0 Z " fill="#F6F6F7" transform="translate(18,18)"/>
<path d="M0 0 C7.73424973 0.17049448 19.23003881 1.23003881 25 7 C25.09509559 9.61688441 25.12556 12.207289 25.11352539 14.82446289 C25.11367142 15.64390884 25.11381744 16.4633548 25.1139679 17.30763245 C25.11326852 20.02933353 25.10547501 22.75096705 25.09765625 25.47265625 C25.09579216 27.35452741 25.09436821 29.23639906 25.09336853 31.11827087 C25.08954267 36.08148529 25.07971181 41.04467064 25.06866455 46.00787354 C25.0584519 51.06839606 25.05387122 56.12892327 25.04882812 61.18945312 C25.0380896 71.12631488 25.02101236 81.06315503 25 91 C20.39035778 90.43556079 15.84963055 89.81699177 11.28515625 88.953125 C4.97161319 87.88615903 -1.17054619 87.70256435 -7.5625 87.75 C-8.60857422 87.74226563 -9.65464844 87.73453125 -10.73242188 87.7265625 C-16.9075381 87.74189488 -22.61291655 88.30610652 -28.64038086 89.66894531 C-31.09743137 90.01366963 -32.66347618 89.77129938 -35 89 C-34.67 88.67 -34.34 88.34 -34 88 C-34.99 87.34 -35.98 86.68 -37 86 C-37.33 86.66 -37.66 87.32 -38 88 C-38.84175781 87.7834375 -39.68351562 87.566875 -40.55078125 87.34375 C-49.67997643 85.29608005 -58.45477147 84.69774592 -67.8125 84.6875 C-69.50983276 84.67976563 -69.50983276 84.67976563 -71.24145508 84.671875 C-77.55980543 84.72359284 -83.48406653 85.25241049 -89.66674805 86.57348633 C-92 87 -92 87 -96 87 C-95 84 -95 84 -92.1875 82.4375 C-87.01675513 80.382183 -81.48019808 79.76488807 -76 79 C-82.88940671 79.43632909 -89.35751464 80.08389845 -96 82 C-95.8515625 80.13671875 -95.8515625 80.13671875 -95 78 C-92.5234375 76.76953125 -92.5234375 76.76953125 -89.375 75.8125 C-88.35148437 75.48894531 -87.32796875 75.16539063 -86.2734375 74.83203125 C-71.80005439 71.15323578 -54.96855539 71.51416734 -41 77 C-38.55859375 79.140625 -38.55859375 79.140625 -37 81 C-36.38125 80.360625 -35.7625 79.72125 -35.125 79.0625 C-33 77 -33 77 -31 76 C-31.33 75.34 -31.66 74.68 -32 74 C-13.79039976 68.95179399 4.57691826 67.28845913 22 76 C21.67 53.89 21.34 31.78 21 9 C13.76022688 6.58674229 7.34785438 4.46957088 0 3 C0 2.01 0 1.02 0 0 Z " fill="#38384B" transform="translate(101,35)"/>
<path d="M0 0 C0 15.84 0 31.68 0 48 C2.64 48 5.28 48 8 48 C22.24697023 50.75747811 35.12125523 57.33338998 44 69 C41.0844213 70.45778935 39.35587754 69.46714093 36.25 68.625 C24.49034979 65.463486 11.75656456 64.21398768 0 68 C-1.90797839 68.53260398 -3.81830482 69.05684304 -5.73046875 69.57421875 C-6.71813232 69.84194092 -7.7057959 70.10966309 -8.72338867 70.38549805 C-9.85031128 70.68967651 -9.85031128 70.68967651 -11 71 C-11.11578527 62.3162096 -11.2046592 53.63268434 -11.25906086 44.94829082 C-11.28516951 40.91585235 -11.32058908 36.88394144 -11.37719727 32.85180664 C-11.43147429 28.96142702 -11.46141098 25.07155517 -11.47438622 21.18082619 C-11.48363409 19.69557511 -11.50169341 18.21035223 -11.52865028 16.725317 C-11.56488769 14.64658676 -11.56994822 12.56996141 -11.56762695 10.4909668 C-11.57873001 9.30738083 -11.58983307 8.12379486 -11.60127258 6.90434265 C-11 4 -11 4 -8.60124207 2.13728333 C-5.65049661 0.84719439 -3.22320855 0 0 0 Z " fill="#B8C5E2" transform="translate(16,40)"/>
<path d="M0 0 C0.99 0 1.98 0 3 0 C3.391875 0.78375 3.78375 1.5675 4.1875 2.375 C6.23709673 5.34338147 6.83474389 5.50382467 10.1875 6.3125 C11.445625 6.539375 12.70375 6.76625 14 7 C13.690625 7.721875 13.38125 8.44375 13.0625 9.1875 C11.29460685 13.86721717 10.74254665 17.10990362 12 22 C9 23 9 23 6 22 C5.9071875 23.918125 5.9071875 23.918125 5.8125 25.875 C5.77769531 26.59429687 5.74289063 27.31359375 5.70703125 28.0546875 C5.80371094 28.69664063 5.90039062 29.33859375 6 30 C6.99 30.66 7.98 31.32 9 32 C9.6171875 34.6796875 9.6171875 34.6796875 9.875 37.875 C9.97554687 38.92429688 10.07609375 39.97359375 10.1796875 41.0546875 C10 44 10 44 8.51855469 45.80639648 C6.53728556 48.66840663 6.58800806 50.58319426 6.5234375 54.04296875 C6.47703125 55.77643555 6.47703125 55.77643555 6.4296875 57.54492188 C6.41164063 58.74697266 6.39359375 59.94902344 6.375 61.1875 C6.32424249 63.57690963 6.26976564 65.9662442 6.2109375 68.35546875 C6.18459229 69.94331177 6.18459229 69.94331177 6.15771484 71.56323242 C6 74 6 74 5 75 C1.5625 75.1875 1.5625 75.1875 -2 75 C-4.92537919 72.07462081 -4.42255667 68.86615292 -4.5625 64.9375 C-4.32425947 60.08062236 -4.32425947 60.08062236 -6 56 C-6.12557162 53.69006618 -6.17575729 51.37581464 -6.1875 49.0625 C-6.20167969 47.79535156 -6.21585937 46.52820312 -6.23046875 45.22265625 C-6 42 -6 42 -4 40 C-3.72345612 38.06318864 -3.72345612 38.06318864 -3.8046875 35.8671875 C-3.81113281 35.06152344 -3.81757812 34.25585938 -3.82421875 33.42578125 C-3.84097656 32.58402344 -3.85773438 31.74226563 -3.875 30.875 C-3.88853516 29.60076172 -3.88853516 29.60076172 -3.90234375 28.30078125 C-3.92594353 26.20040116 -3.96181517 24.10016556 -4 22 C-5.32 22.33 -6.64 22.66 -8 23 C-8.84857919 20.45426244 -9.03698622 19.14794488 -8.375 16.5 C-7.70049686 13.92611863 -7.70049686 13.92611863 -9.4375 11.875 C-10.2109375 10.946875 -10.2109375 10.946875 -11 10 C-11 9.01 -11 8.02 -11 7 C-10.18595703 6.74476562 -10.18595703 6.74476562 -9.35546875 6.484375 C-4.9564256 4.99424867 -2.61292985 3.98815608 0 0 Z " fill="#39394F" transform="translate(92,11)"/>
<path d="M0 0 C-2.66666667 1.33333333 -5.33333333 2.66666667 -8 4 C-8.33 26.11 -8.66 48.22 -9 71 C-4.71 69.35 -0.42 67.7 4 66 C17.14572083 63.80904653 29.129042 65.12457321 42 68 C41.34 68.99 40.68 69.98 40 71 C38.741875 70.67 37.48375 70.34 36.1875 70 C21.94136887 67.15889123 5.26799975 67.85740752 -8 74 C-8.33 74.99 -8.66 75.98 -9 77 C-7.515 76.01 -7.515 76.01 -6 75 C0.62578077 73.40981262 7.20312237 72.73858163 14 73 C10.58226813 75.27848791 7.51792014 75.80979246 3.5625 76.5 C-2.48901557 77.46379955 -2.48901557 77.46379955 -8 80 C-8.495 80.99 -8.495 80.99 -9 82 C-8.23042969 81.7834375 -7.46085938 81.566875 -6.66796875 81.34375 C2.12738125 79.21154394 10.57718173 78.69746113 19.625 78.6875 C20.74366455 78.68234375 21.8623291 78.6771875 23.01489258 78.671875 C42.75040903 78.83360602 42.75040903 78.83360602 49 83 C49.495 81.515 49.495 81.515 50 80 C51.98 80.66 53.96 81.32 56 82 C54.5 84.0625 54.5 84.0625 52 86 C49.12306564 85.89905493 46.78378599 85.59589499 44 85 C36.20642107 83.34516656 28.77914755 82.64787418 20.8125 82.6875 C19.18308472 82.68943359 19.18308472 82.68943359 17.52075195 82.69140625 C9.77192991 82.78329179 2.55401916 83.61246744 -4.98828125 85.34375 C-8 86 -8 86 -12 86 C-12.11573798 75.09968657 -12.20463611 64.19951876 -12.25906086 53.29871655 C-12.28517928 48.23725403 -12.32061827 43.17621118 -12.37719727 38.11499023 C-12.43143702 33.23259152 -12.46140361 28.35059699 -12.47438622 23.4679203 C-12.48364058 21.603098 -12.50171202 19.73829838 -12.52865028 17.87364769 C-12.56483472 15.26577959 -12.56994994 12.65959151 -12.56762695 10.05151367 C-12.58560333 9.27683746 -12.60357971 8.50216125 -12.62210083 7.70401001 C-12.60127258 5.54972839 -12.60127258 5.54972839 -12 2 C-7.96610921 -1.55196424 -5.1041486 -1.1008948 0 0 Z " fill="#39384A" transform="translate(14,40)"/>
<path d="M0 0 C0.99 0.33 1.98 0.66 3 1 C2.49477778 5.37859255 -0.17827222 7.81651224 -3 11 C-2.34 11 -1.68 11 -1 11 C-0.505 10.34 -0.01 9.68 0.5 9 C0.995 8.34 1.49 7.68 2 7 C2.66 7 3.32 7 4 7 C3.40072174 10.35595828 2.15377564 12.37801226 0 15 C0.33 15.33 0.66 15.66 1 16 C1.33 16 1.66 16 2 16 C2.02886751 20.14581887 2.04675327 24.29161216 2.0625 28.4375 C2.07087891 29.62150391 2.07925781 30.80550781 2.08789062 32.02539062 C2.09111328 33.15009766 2.09433594 34.27480469 2.09765625 35.43359375 C2.10289307 36.47572021 2.10812988 37.51784668 2.11352539 38.59155273 C2 41 2 41 1 42 C-2.4375 42.1875 -2.4375 42.1875 -6 42 C-8.92537919 39.07462081 -8.42255667 35.86615292 -8.5625 31.9375 C-8.32425947 27.08062236 -8.32425947 27.08062236 -10 23 C-10.84861943 13.15601458 -5.80154435 7.44531525 0 0 Z " fill="#3D3C4F" transform="translate(96,44)"/>
<path d="M0 0 C0 22.11 0 44.22 0 67 C-2.475 67.99 -2.475 67.99 -5 69 C-5 46.89 -5 24.78 -5 2 C-1 0 -1 0 0 0 Z " fill="#B8C5E3" transform="translate(70,42)"/>
<path d="M0 0 C0 0.99 0 1.98 0 3 C-1.06734375 2.71125 -2.1346875 2.4225 -3.234375 2.125 C-20.22364938 -2.21157839 -36.00169656 -2.17920072 -53 2 C-54.66492543 2.34192428 -56.33097678 2.67867403 -58 3 C-57.85546875 1.13671875 -57.85546875 1.13671875 -57 -1 C-54.48828125 -2.23046875 -54.48828125 -2.23046875 -51.3125 -3.1875 C-50.27738281 -3.51105469 -49.24226563 -3.83460937 -48.17578125 -4.16796875 C-33.07902731 -8.12320687 -13.90254601 -7.73525116 0 0 Z " fill="#7C8BBC" transform="translate(123,114)"/>
<path d="M0 0 C1.17304687 -0.01224609 2.34609375 -0.02449219 3.5546875 -0.03710938 C13.0173006 -0.0528804 21.96708246 0.81693661 30.875 4.1875 C30.875 5.1775 30.875 6.1675 30.875 7.1875 C30.10542969 7.043125 29.33585937 6.89875 28.54296875 6.75 C19.72613511 5.32505719 11.05492399 4.96676844 2.125 4.9375 C0.98957764 4.92847656 -0.14584473 4.91945313 -1.31567383 4.91015625 C-7.66019487 4.93230923 -13.5859531 5.42733502 -19.79394531 6.75878906 C-22.125 7.1875 -22.125 7.1875 -26.125 7.1875 C-25.795 6.1975 -25.465 5.2075 -25.125 4.1875 C-16.72764118 -0.01117941 -9.20393547 0.00495902 0 0 Z " fill="#7582B0" transform="translate(31.125,114.8125)"/>
<path d="M0 0 C1.21212158 -0.00153076 2.42424316 -0.00306152 3.6730957 -0.00463867 C12.90281848 0.10937143 20.23710624 1.53054869 28.625 5.375 C28.625 6.035 28.625 6.695 28.625 7.375 C27.87871338 7.23352539 27.13242676 7.09205078 26.36352539 6.94628906 C17.94128521 5.48534716 9.72345938 5.06356621 1.2043457 5.11425781 C-0.93892572 5.12500715 -3.08136264 5.11427771 -5.22460938 5.1015625 C-13.43758496 5.09447777 -21.31113549 5.6862527 -29.375 7.375 C-28.375 4.375 -28.375 4.375 -26.19921875 3.20703125 C-17.42698666 0.35578271 -9.17964099 0.00654117 0 0 Z " fill="#7380AC" transform="translate(94.375,114.625)"/>
<path d="M0 0 C1.00824829 0.23529419 1.00824829 0.23529419 2.03686523 0.4753418 C5.01175138 1.2837137 6.62301608 1.78041638 8.37109375 4.390625 C8.55800781 5.00421875 8.74492188 5.6178125 8.9375 6.25 C6.87478361 5.9389315 4.81233534 5.62608484 2.75 5.3125 C1.60144531 5.13847656 0.45289063 4.96445313 -0.73046875 4.78515625 C-2.63579989 4.47914175 -4.53818506 4.14504125 -6.42260742 3.72924805 C-11.30240024 2.84336686 -16.24098576 3.02316868 -21.1875 3 C-22.26515625 2.979375 -23.3428125 2.95875 -24.453125 2.9375 C-32.93506188 2.8966232 -40.06944233 4.58564744 -48.0625 7.25 C-47.9140625 5.38671875 -47.9140625 5.38671875 -47.0625 3.25 C-44.5859375 2.01953125 -44.5859375 2.01953125 -41.4375 1.0625 C-40.41398437 0.73894531 -39.39046875 0.41539063 -38.3359375 0.08203125 C-26.01010098 -3.0509081 -12.34480208 -2.98832194 0 0 Z " fill="#7A8ABA" transform="translate(53.0625,109.75)"/>
<path d="M0 0 C0.33 0 0.66 0 1 0 C1.33 22.44 1.66 44.88 2 68 C4.97 67.505 4.97 67.505 8 67 C5.53058944 69.59937954 2.81939117 71.79020692 0 74 C0 73.01 0 72.02 0 71 C-0.95712891 70.70996094 -0.95712891 70.70996094 -1.93359375 70.4140625 C-2.75988281 70.15367188 -3.58617187 69.89328125 -4.4375 69.625 C-5.67306641 69.24214844 -5.67306641 69.24214844 -6.93359375 68.8515625 C-9 68 -9 68 -10 66 C-8.02 66 -6.04 66 -4 66 C-6.31 63.36 -8.62 60.72 -11 58 C-9.02 57.505 -9.02 57.505 -7 57 C-2 62.75 -2 62.75 -2 65 C-1.34 65 -0.68 65 0 65 C0 43.55 0 22.1 0 0 Z " fill="#1F1E34" transform="translate(63,43)"/>
<path d="M0 0 C0.99 0 1.98 0 3 0 C2.90234375 2.01822917 2.8046875 4.03645833 2.70703125 6.0546875 C2.80371094 6.69664063 2.90039062 7.33859375 3 8 C3.99 8.66 4.98 9.32 6 10 C7.30043279 15.27181437 7.99828849 20.31323669 5.1875 25.0625 C4.465625 25.701875 3.74375 26.34125 3 27 C2.34 27.99 1.68 28.98 1 30 C0.25 28.3125 0.25 28.3125 0 26 C1.875 23.4375 1.875 23.4375 4 21 C4.33 20.01 4.66 19.02 5 18 C4.34 18 3.68 18 3 18 C2.731875 18.61875 2.46375 19.2375 2.1875 19.875 C1 22 1 22 -2 24 C-2.33 23.34 -2.66 22.68 -3 22 C-2.566875 21.52949219 -2.13375 21.05898438 -1.6875 20.57421875 C-1.130625 19.95160156 -0.57375 19.32898438 0 18.6875 C0.556875 18.07261719 1.11375 17.45773438 1.6875 16.82421875 C3.29201498 14.96868665 3.29201498 14.96868665 3 12 C2.34 11.67 1.68 11.34 1 11 C0.731875 11.57621094 0.46375 12.15242188 0.1875 12.74609375 C-1.02862441 15.05432988 -2.40878304 16.997896 -4 19.0625 C-5.75121278 21.34345464 -7.40257851 23.60386777 -9 26 C-9.125 23.125 -9.125 23.125 -9 20 C-8.34 19.34 -7.68 18.68 -7 18 C-6.5342637 15.44132526 -6.16515752 12.95312092 -5.875 10.375 C-5.78863281 9.66859375 -5.70226562 8.9621875 -5.61328125 8.234375 C-5.40118817 6.49049859 -5.19959009 4.7453516 -5 3 C-4.67 3 -4.34 3 -4 3 C-4 6.3 -4 9.6 -4 13 C-3.34 13 -2.68 13 -2 13 C-1.34 8.71 -0.68 4.42 0 0 Z " fill="#2B3044" transform="translate(95,33)"/>
<path d="M0 0 C3.8826414 1.14714405 7.10728242 2.10728242 10 5 C10.390625 7.91796875 10.390625 7.91796875 10.25 11.1875 C10.21390625 12.27417969 10.1778125 13.36085938 10.140625 14.48046875 C10.07101563 15.72763672 10.07101563 15.72763672 10 17 C8.5410574 16.52269162 7.08286504 16.04308958 5.625 15.5625 C4.81289063 15.29566406 4.00078125 15.02882813 3.1640625 14.75390625 C1 14 1 14 -1 13 C-1.02686553 11.02090602 -1.04633375 9.04171029 -1.0625 7.0625 C-1.07410156 5.96035156 -1.08570312 4.85820313 -1.09765625 3.72265625 C-1 1 -1 1 0 0 Z " fill="#4B4B5E" transform="translate(30,57)"/>
<path d="M0 0 C1.67147095 -0.00193359 1.67147095 -0.00193359 3.37670898 -0.00390625 C13.13669943 0.1192747 22.08215461 1.69863044 31.4375 4.375 C31.7675 3.715 32.0975 3.055 32.4375 2.375 C32.56125 3.179375 32.685 3.98375 32.8125 4.8125 C33.01875 5.658125 33.225 6.50375 33.4375 7.375 C34.0975 7.705 34.7575 8.035 35.4375 8.375 C34.4475 9.365 33.4575 10.355 32.4375 11.375 C31.7775 11.045 31.1175 10.715 30.4375 10.375 C30.7675 9.385 31.0975 8.395 31.4375 7.375 C30.674375 7.25125 29.91125 7.1275 29.125 7 C27.17443496 6.66939576 25.22424159 6.32760924 23.29296875 5.8984375 C13.77752159 3.89045338 4.1256757 3.73557853 -5.5625 3.375 C-5.5625 3.045 -5.5625 2.715 -5.5625 2.375 C-8.5325 2.375 -11.5025 2.375 -14.5625 2.375 C-9.97674409 -0.68217061 -5.40013854 -0.00635357 0 0 Z " fill="#3E3E52" transform="translate(30.5625,111.625)"/>
<path d="M0 0 C-0.66 0.33 -1.32 0.66 -2 1 C-2 1.66 -2 2.32 -2 3 C-2.96873047 2.7834375 -2.96873047 2.7834375 -3.95703125 2.5625 C-18.46106063 -0.2946549 -32.7545956 0.09587612 -47 4 C-47.33 3.01 -47.66 2.02 -48 1 C-31.33811273 -3.61913707 -16.8958125 -4.07829957 0 0 Z " fill="#3D3D4F" transform="translate(117,108)"/>
<path d="M0 0 C0.99 0 1.98 0 3 0 C3.433125 1.11375 3.86625 2.2275 4.3125 3.375 C5.69911119 7.17512334 5.69911119 7.17512334 9 9 C8 12 8 12 6 13.875 C3.72939356 16.28751935 3.35991425 17.76077175 3 21 C2.01 20.67 1.02 20.34 0 20 C-0.69258229 18.00882592 -1.35747635 16.0078864 -2 14 C-3.49886871 12.16310524 -3.49886871 12.16310524 -5 11 C-4.731875 10.484375 -4.46375 9.96875 -4.1875 9.4375 C-2.67650593 6.33598585 -1.34427274 3.17737194 0 0 Z " fill="#292A41" transform="translate(77,68)"/>
<path d="M0 0 C0.99 0.33 1.98 0.66 3 1 C3.70572696 3.04660819 4.0095872 5.05592534 4.375 7.1875 C4.58125 7.785625 4.7875 8.38375 5 9 C5.99 9.33 6.98 9.66 8 10 C7 13 7 13 5.5 14.375 C3.56690264 16.46918881 3.37547204 18.22150692 3 21 C2.01 21 1.02 21 0 21 C-0.433125 19.88625 -0.86625 18.7725 -1.3125 17.625 C-2.69911119 13.82487666 -2.69911119 13.82487666 -6 12 C-5 9 -5 9 -3.5625 7.6875 C-1.43503794 5.38984098 -0.85871992 2.97249204 0 0 Z " fill="#292B43" transform="translate(110,46)"/>
<path d="M0 0 C0.5775 0.639375 1.155 1.27875 1.75 1.9375 C3.98062401 3.98223868 5.07436391 4.58205199 8 5 C7.505 5.8353125 7.505 5.8353125 7 6.6875 C5.8690399 9.30284522 5.84337026 11.1806646 6 14 C5.07767578 13.98259766 5.07767578 13.98259766 4.13671875 13.96484375 C2.92435547 13.95130859 2.92435547 13.95130859 1.6875 13.9375 C0.88699219 13.92589844 0.08648437 13.91429687 -0.73828125 13.90234375 C-3.16861334 13.90342145 -3.16861334 13.90342145 -6 15 C-5.979375 13.906875 -5.95875 12.81375 -5.9375 11.6875 C-5.81455548 8.05615809 -5.81455548 8.05615809 -7 5 C-6.21625 4.731875 -5.4325 4.46375 -4.625 4.1875 C-1.71885077 3.15185568 -1.71885077 3.15185568 0 0 Z " fill="#F7C071" transform="translate(93,15)"/>
<path d="M0 0 C-0.66 0.99 -1.32 1.98 -2 3 C-3.258125 2.67 -4.51625 2.34 -5.8125 2 C-11.08444498 0.93807965 -16.20680544 0.80832117 -21.5625 0.8125 C-22.35309814 0.81185547 -23.14369629 0.81121094 -23.95825195 0.81054688 C-29.36724167 0.85982642 -34.63278457 1.3297683 -40 2 C-40 1.01 -40 0.02 -40 -1 C-26.89381112 -5.36872963 -13.13123685 -2.93357419 0 0 Z " fill="#3F3F53" transform="translate(56,108)"/>
<path d="M0 0 C0.99 0.33 1.98 0.66 3 1 C2.49477778 5.37859255 -0.17827222 7.81651224 -3 11 C-2.34 11 -1.68 11 -1 11 C-0.505 10.34 -0.01 9.68 0.5 9 C0.995 8.34 1.49 7.68 2 7 C2.66 7 3.32 7 4 7 C3.40912149 10.89979817 1.52472941 13.17316128 -0.9375 16.1875 C-1.64777344 17.06792969 -2.35804687 17.94835937 -3.08984375 18.85546875 C-5 21 -5 21 -7 22 C-6.47731534 19.23723823 -5.89130413 16.6739124 -5 14 C-5.99 14 -6.98 14 -8 14 C-7.37606349 10.23880524 -5.65226285 7.81039958 -3.4375 4.75 C-2.79683594 3.85796875 -2.15617187 2.9659375 -1.49609375 2.046875 C-0.75552734 1.03367188 -0.75552734 1.03367188 0 0 Z " fill="#E68985" transform="translate(96,44)"/>
<path d="M0 0 C0 0.66 0 1.32 0 2 C-0.66 2.66 -1.32 3.32 -2 4 C-2.14069 6.80940335 -1.99471132 9.56161862 -1.875 12.37109375 C-2 15 -2 15 -4 18 C-5.32 17.67 -6.64 17.34 -8 17 C-8.33 11.72 -8.66 6.44 -9 1 C-6.04335481 -0.4783226 -3.25770263 -0.06032783 0 0 Z " fill="#4F4756" transform="translate(97,28)"/>
<path d="M0 0 C0.90556641 -0.01224609 1.81113281 -0.02449219 2.74414062 -0.03710938 C4.04061523 -0.04000977 4.04061523 -0.04000977 5.36328125 -0.04296875 C6.5375769 -0.04913208 6.5375769 -0.04913208 7.7355957 -0.05541992 C9.6875 0.1875 9.6875 0.1875 11.6875 2.1875 C10.38039062 2.21328125 9.07328125 2.2390625 7.7265625 2.265625 C-3.12714269 2.57719018 -13.19449234 3.67702589 -23.72265625 6.34765625 C-27.3125 7.1875 -27.3125 7.1875 -31.3125 7.1875 C-31.3125 6.5275 -31.3125 5.8675 -31.3125 5.1875 C-29.12676438 4.53572031 -26.9388177 3.89135326 -24.75 3.25 C-23.53183594 2.89035156 -22.31367187 2.53070313 -21.05859375 2.16015625 C-14.00529288 0.32879867 -7.24123785 0.00526635 0 0 Z " fill="#363545" transform="translate(95.3125,111.8125)"/>
<path d="M0 0 C3.52960848 0.58826808 7.07323366 0.77768586 10.640625 0.9921875 C11.95160156 1.07597656 13.26257813 1.15976563 14.61328125 1.24609375 C15.59167969 1.30667969 16.57007813 1.36726563 17.578125 1.4296875 C17.578125 1.7596875 17.578125 2.0896875 17.578125 2.4296875 C16.52496094 2.46707031 15.47179687 2.50445312 14.38671875 2.54296875 C4.49318005 2.96770303 -4.76372066 4.24114021 -14.421875 6.4296875 C-16.087506 6.76815797 -17.75377688 7.10359313 -19.421875 7.4296875 C-19.265625 5.57421875 -19.265625 5.57421875 -18.421875 3.4296875 C-12.61935056 0.29293321 -6.49143805 -1.17807579 0 0 Z " fill="#727FAB" transform="translate(84.421875,109.5703125)"/>
<path d="M0 0 C9.88797809 0.44945355 18.49361126 6.00642967 25.671875 12.484375 C27 14 27 14 27 16 C23.44281878 15.40047508 21.53636281 14.00451992 18.8125 11.6875 C14.46864823 8.19524356 10.1767128 5.99258384 5 4 C3.989375 3.5875 2.97875 3.175 1.9375 2.75 C1.298125 2.5025 0.65875 2.255 0 2 C0 1.34 0 0.68 0 0 Z " fill="#2A2A3E" transform="translate(29,39)"/>
<path d="M0 0 C9.07602489 -0.66775559 17.10780105 5.12366453 23.8125 10.8125 C25.70703125 12.51953125 25.70703125 12.51953125 27 14 C27 14.66 27 15.32 27 16 C23.52329979 14.40548501 20.55795362 12.32718431 17.4375 10.125 C11.86954763 6.35824256 6.42182356 3.92149051 0 2 C0 1.34 0 0.68 0 0 Z " fill="#2E2E43" transform="translate(29,49)"/>
<path d="M0 0 C3.43742918 -0.05802698 6.87473253 -0.09360486 10.3125 -0.125 C11.28896484 -0.14175781 12.26542969 -0.15851563 13.27148438 -0.17578125 C14.20927734 -0.18222656 15.14707031 -0.18867187 16.11328125 -0.1953125 C16.97735596 -0.20578613 17.84143066 -0.21625977 18.73168945 -0.22705078 C21 0 21 0 24 2 C21.11734851 2.96088383 19.32337729 3.11670941 16.33203125 3.09765625 C15.43935547 3.09443359 14.54667969 3.09121094 13.62695312 3.08789062 C12.23379883 3.07532227 12.23379883 3.07532227 10.8125 3.0625 C9.87212891 3.05798828 8.93175781 3.05347656 7.96289062 3.04882812 C5.64186288 3.03704626 3.32096356 3.02059558 1 3 C0.67 2.01 0.34 1.02 0 0 Z " fill="#7F8FC1" transform="translate(24,115)"/>
<path d="M0 0 C0 4.29 0 8.58 0 13 C-1.65 13 -3.3 13 -5 13 C-5 9.04 -5 5.08 -5 1 C-3 0 -3 0 0 0 Z " fill="#DB8381" transform="translate(96,71)"/>
<path d="M0 0 C0.33 0.99 0.66 1.98 1 3 C-1.24886238 3.50509208 -3.49913869 4.00389179 -5.75 4.5 C-7.62945313 4.91765625 -7.62945313 4.91765625 -9.546875 5.34375 C-13 6 -13 6 -17 6 C-16 3 -16 3 -13 1.3125 C-8.69889476 -0.40436529 -4.56290556 -0.27936157 0 0 Z " fill="#7988B7" transform="translate(22,116)"/>
<path d="M0 0 C0.33 0 0.66 0 1 0 C1 4.95 1 9.9 1 15 C2.98 15 4.96 15 7 15 C7 10.71 7 6.42 7 2 C9 4 9 4 9.23046875 6.78515625 C9.20919922 8.40744141 9.20919922 8.40744141 9.1875 10.0625 C9.17783203 11.68865234 9.17783203 11.68865234 9.16796875 13.34765625 C9 16 9 16 8 17 C4.5 17.125 4.5 17.125 1 17 C0 16 0 16 -0.09765625 12.40234375 C-0.0909822 10.91403133 -0.07902183 9.42573568 -0.0625 7.9375 C-0.05798828 7.17888672 -0.05347656 6.42027344 -0.04882812 5.63867188 C-0.0370068 3.75908129 -0.01907078 1.87953101 0 0 Z " fill="#1D233A" transform="translate(89,69)"/>
<path d="M0 0 C0.33 0 0.66 0 1 0 C1 3.3 1 6.6 1 10 C3.31 10.33 5.62 10.66 8 11 C7.67 8.03 7.34 5.06 7 2 C7.99 2.33 8.98 2.66 10 3 C10 6.96 10 10.92 10 15 C1.125 12.125 1.125 12.125 0 11 C-0.07226502 9.14712498 -0.0838122 7.29166122 -0.0625 5.4375 C-0.05347656 4.42558594 -0.04445313 3.41367187 -0.03515625 2.37109375 C-0.02355469 1.58863281 -0.01195313 0.80617187 0 0 Z " fill="#26253A" transform="translate(30,59)"/>
<path d="M0 0 C1.67739258 0.00966797 1.67739258 0.00966797 3.38867188 0.01953125 C5.13954102 0.04466797 5.13954102 0.04466797 6.92578125 0.0703125 C8.69405273 0.08384766 8.69405273 0.08384766 10.49804688 0.09765625 C13.41166151 0.12124827 16.32487017 0.1541671 19.23828125 0.1953125 C18.24828125 1.6803125 18.24828125 1.6803125 17.23828125 3.1953125 C14.28763977 3.4161689 11.55459894 3.47592239 8.61328125 3.3828125 C7.81148437 3.36927734 7.0096875 3.35574219 6.18359375 3.34179688 C4.20153747 3.30640301 2.21982574 3.25259484 0.23828125 3.1953125 C0.23828125 2.8653125 0.23828125 2.5353125 0.23828125 2.1953125 C-2.73171875 2.1953125 -5.70171875 2.1953125 -8.76171875 2.1953125 C-5.31537993 -0.10224672 -4.05103484 -0.04112726 0 0 Z " fill="#464961" transform="translate(24.76171875,111.8046875)"/>
<path d="M0 0 C0.33 0.66 0.66 1.32 1 2 C1.99 2 2.98 2 4 2 C3.814375 3.11375 3.62875 4.2275 3.4375 5.375 C2.68319343 8.82568861 2.68319343 8.82568861 4 11 C3.34 11 2.68 11 2 11 C2 16.61 2 22.22 2 28 C1.67 28 1.34 28 1 28 C0.93941406 26.85660156 0.87882812 25.71320313 0.81640625 24.53515625 C0.73201572 23.04425695 0.64736698 21.55337225 0.5625 20.0625 C0.52318359 19.30775391 0.48386719 18.55300781 0.44335938 17.77539062 C0.55961976 14.08055813 0.55961976 14.08055813 -1 11 C-1.23529412 3.70588235 -1.23529412 3.70588235 0 0 Z " fill="#545363" transform="translate(87,56)"/>
<path d="M0 0 C0.99 0.33 1.98 0.66 3 1 C4.1875 4.5625 4.1875 4.5625 5 8 C4.34 8 3.68 8 3 8 C3.33 9.32 3.66 10.64 4 12 C2.02 12.99 2.02 12.99 0 14 C0 13.34 0 12.68 0 12 C-0.66 12 -1.32 12 -2 12 C-1.34 10.35 -0.68 8.7 0 7 C-0.66 6.67 -1.32 6.34 -2 6 C-1.34 4.02 -0.68 2.04 0 0 Z " fill="#414051" transform="translate(110,46)"/>
<path d="M0 0 C1.87939453 -0.34057617 1.87939453 -0.34057617 4.1328125 -0.29296875 C4.93847656 -0.28330078 5.74414062 -0.27363281 6.57421875 -0.26367188 C7.41597656 -0.23853516 8.25773437 -0.21339844 9.125 -0.1875 C9.97449219 -0.17396484 10.82398437 -0.16042969 11.69921875 -0.14648438 C13.79974837 -0.11108219 15.89995293 -0.05727401 18 0 C17.01 0.495 17.01 0.495 16 1 C16 1.66 16 2.32 16 3 C10.06 3 4.12 3 -2 3 C-1.34 2.01 -0.68 1.02 0 0 Z " fill="#7F8FC1" transform="translate(86,115)"/>
<path d="M0 0 C-0.99 0.495 -0.99 0.495 -2 1 C-2 1.66 -2 2.32 -2 3 C-7.61 3.99 -13.22 4.98 -19 6 C-18.67 5.01 -18.34 4.02 -18 3 C-12.21365095 0.25909782 -6.30796903 -0.35044272 0 0 Z " fill="#7B8BBB" transform="translate(84,116)"/>
<path d="M0 0 C5.9129304 0.64270983 11.34244531 2.19003784 17 4 C17 4.99 17 5.98 17 7 C13.65131703 6.49769755 10.39534228 5.86605902 7.125 5 C3.10128991 3.95911747 -0.86964083 3.44253848 -5 3 C-5 2.67 -5 2.34 -5 2 C-3.35 1.67 -1.7 1.34 0 1 C0 0.67 0 0.34 0 0 Z " fill="#333347" transform="translate(21,85)"/>
<path d="M0 0 C0.33 0 0.66 0 1 0 C1 1.98 1 3.96 1 6 C1.66 6 2.32 6 3 6 C3 6.99 3 7.98 3 9 C3.66 9 4.32 9 5 9 C4.34 10.32 3.68 11.64 3 13 C2.236875 12.67 1.47375 12.34 0.6875 12 C-1.99069135 10.82563314 -1.99069135 10.82563314 -5 11 C-4.731875 10.484375 -4.46375 9.96875 -4.1875 9.4375 C-2.67650593 6.33598585 -1.34427274 3.17737194 0 0 Z " fill="#444354" transform="translate(77,68)"/>
<path d="M0 0 C2 2 2 2 2 4 C1.41299316 3.86287598 0.82598633 3.72575195 0.22119141 3.58447266 C-6.41455631 2.13367403 -12.84610143 1.59221437 -19.625 1.375 C-20.62917969 1.33632812 -21.63335937 1.29765625 -22.66796875 1.2578125 C-25.11181005 1.16471378 -27.55566596 1.07889087 -30 1 C-30 0.67 -30 0.34 -30 0 C-26.68812351 -0.19977261 -23.37550624 -0.38251777 -20.0625 -0.5625 C-19.13630859 -0.61857422 -18.21011719 -0.67464844 -17.25585938 -0.73242188 C-11.36069675 -1.04269359 -5.83436713 -0.96756635 0 0 Z " fill="#464961" transform="translate(116,114)"/>
<path d="M0 0 C4.47255668 0.53866559 7.15182901 2.2201333 10.75 4.875 C12.19632813 5.92300781 12.19632813 5.92300781 13.671875 6.9921875 C16 9 16 9 17 12 C13.36713972 11.39727545 11.31721095 9.88283984 8.5 7.5625 C5.76018483 5.31528859 3.23483979 3.46302981 0 2 C0 1.34 0 0.68 0 0 Z " fill="#27273B" transform="translate(39,33)"/>
<path d="M0 0 C0 0.99 0 1.98 0 3 C-8.91 1.02 -8.91 1.02 -18 -1 C-18 -1.33 -18 -1.66 -18 -2 C-11.70626894 -5.14686553 -5.98681333 -2.99340667 0 0 Z " fill="#7583B1" transform="translate(123,114)"/>
<path d="M0 0 C-0.33 0.66 -0.66 1.32 -1 2 C-3.16467461 2.62669199 -5.35864524 3.15427374 -7.5625 3.625 C-8.76003906 3.88539062 -9.95757812 4.14578125 -11.19140625 4.4140625 C-12.11824219 4.60742188 -13.04507813 4.80078125 -14 5 C-13.6640625 3.08203125 -13.6640625 3.08203125 -13 1 C-8.41083524 -1.29458238 -4.94683566 -0.98936713 0 0 Z " fill="#7481AE" transform="translate(79,112)"/>
<path d="M0 0 C1.77155654 0.11429397 3.54226229 0.24183037 5.3125 0.375 C6.79169922 0.47941406 6.79169922 0.47941406 8.30078125 0.5859375 C11 1 11 1 14 3 C13.67 3.66 13.34 4.32 13 5 C11.58297487 4.85769192 10.1663904 4.71099254 8.75 4.5625 C7.56664063 4.44068359 7.56664063 4.44068359 6.359375 4.31640625 C4.17635361 4.02365007 2.1226818 3.57935581 0 3 C0 2.01 0 1.02 0 0 Z " fill="#484859" transform="translate(101,35)"/>
<path d="M0 0 C0 0.66 0 1.32 0 2 C-2.06271639 1.6889315 -4.12516466 1.37608484 -6.1875 1.0625 C-7.33605469 0.88847656 -8.48460938 0.71445313 -9.66796875 0.53515625 C-12.46325212 0.08620687 -15.22933586 -0.42082162 -18 -1 C-18 -1.33 -18 -1.66 -18 -2 C-11.85587081 -3.38242907 -5.51815615 -3.44884759 0 0 Z " fill="#7E8FC1" transform="translate(123,120)"/>
<path d="M0 0 C1.98 0.66 3.96 1.32 6 2 C6 4.31 6 6.62 6 9 C4.02 8.34 2.04 7.68 0 7 C0 4.69 0 2.38 0 0 Z " fill="#B9C6E2" transform="translate(32,61)"/>
<path d="M0 0 C0.33 1.32 0.66 2.64 1 4 C-2.13349732 5.04449911 -2.98968256 4.93423645 -6 4 C-6.33 4.66 -6.66 5.32 -7 6 C-7 5.34 -7 4.68 -7 4 C-7.66 3.67 -8.32 3.34 -9 3 C-9.33 2.34 -9.66 1.68 -10 1 C-3.71428571 -1.42857143 -3.71428571 -1.42857143 0 0 Z " fill="#413F50" transform="translate(103,29)"/>
<path d="M0 0 C5.27749285 0.53851968 9.25645564 1.77343836 14 4 C13.01 5.485 13.01 5.485 12 7 C8.04 5.35 4.08 3.7 0 2 C0 1.34 0 0.68 0 0 Z " fill="#3D3D50" transform="translate(29,39)"/>
<path d="M0 0 C1.98 0 3.96 0 6 0 C6.33 0.99 6.66 1.98 7 3 C12.94 3 18.88 3 25 3 C25 3.33 25 3.66 25 4 C21.77085248 4.02917228 18.54173917 4.04685663 15.3125 4.0625 C13.94448242 4.07506836 13.94448242 4.07506836 12.54882812 4.08789062 C11.66259766 4.09111328 10.77636719 4.09433594 9.86328125 4.09765625 C9.05157471 4.10289307 8.23986816 4.10812988 7.40356445 4.11352539 C4.85135327 3.9929791 2.48973863 3.559949 0 3 C0 2.01 0 1.02 0 0 Z " fill="#6B769F" transform="translate(18,115)"/>
<path d="M0 0 C4.875 3.625 4.875 3.625 6 7 C5.5625 9.6875 5.5625 9.6875 5 12 C4.01 11.67 3.02 11.34 2 11 C0.875 8.125 0.875 8.125 0 5 C-0.33 4.01 -0.66 3.02 -1 2 C-0.67 1.34 -0.34 0.68 0 0 Z " fill="#3C3B4C" transform="translate(75,77)"/>
<path d="M0 0 C3.355762 0.61975785 5.52263528 1.84462848 8.25 3.875 C8.95640625 4.38804688 9.6628125 4.90109375 10.390625 5.4296875 C10.92171875 5.94789062 11.4528125 6.46609375 12 7 C12 7.99 12 8.98 12 10 C9.00745382 8.59808647 6.4045389 6.96632511 3.75 5 C3.04359375 4.484375 2.3371875 3.96875 1.609375 3.4375 C0.81273437 2.7259375 0.81273437 2.7259375 0 2 C0 1.34 0 0.68 0 0 Z " fill="#323246" transform="translate(44,65)"/>
<path d="M0 0 C2.625 0.375 2.625 0.375 5 1 C5 1.99 5 2.98 5 4 C6.0828125 4.3403125 6.0828125 4.3403125 7.1875 4.6875 C10.53209313 6.24831013 12.51603959 8.3031287 15 11 C11.3655031 9.21873667 7.81115063 7.29802134 4.25 5.375 C3.34701172 4.88773438 3.34701172 4.88773438 2.42578125 4.390625 C0.95022703 3.59429415 -0.52492686 2.79722161 -2 2 C-1.34 1.34 -0.68 0.68 0 0 Z " fill="#333347" transform="translate(37,19)"/>
<path d="M0 0 C-3.30288336 2.20192224 -4.27462727 2.23959968 -8.10546875 2.1953125 C-9.08837891 2.18886719 -10.07128906 2.18242188 -11.08398438 2.17578125 C-12.10814453 2.15902344 -13.13230469 2.14226562 -14.1875 2.125 C-15.22326172 2.11597656 -16.25902344 2.10695313 -17.32617188 2.09765625 C-19.88434685 2.0740786 -22.44205748 2.0411703 -25 2 C-25 1.67 -25 1.34 -25 1 C-23.89140625 0.93941406 -22.7828125 0.87882812 -21.640625 0.81640625 C-20.1770718 0.73197049 -18.71353075 0.64732401 -17.25 0.5625 C-16.15558594 0.50352539 -16.15558594 0.50352539 -15.0390625 0.44335938 C-10.94455574 0.22068423 -10.94455574 0.22068423 -6.92871094 -0.54711914 C-4.40066952 -1.14072887 -2.49057838 -0.6226446 0 0 Z " fill="#7481AE" transform="translate(50,110)"/>
<path d="M0 0 C5.18701457 0.31436452 8.5947359 3.30033267 12 7 C12 7.66 12 8.32 12 9 C8.61638481 8.38271885 6.47997439 7.13020282 3.75 5.0625 C3.04359375 4.53785156 2.3371875 4.01320313 1.609375 3.47265625 C1.07828125 2.98667969 0.5471875 2.50070313 0 2 C0 1.34 0 0.68 0 0 Z " fill="#2F2F42" transform="translate(44,75)"/>
<path d="M0 0 C4.69089936 2.17791756 8.64188996 5.04222745 12 9 C12 10.32 12 11.64 12 13 C8.57365169 11.8578839 8.03642174 11.0459149 6 8.1875 C5.505 7.50042969 5.01 6.81335937 4.5 6.10546875 C4.005 5.41066406 3.51 4.71585938 3 4 C2.00332535 2.66417912 1.00429893 1.33009828 0 0 Z " fill="#2E2E43" transform="translate(52,30)"/>
<path d="M0 0 C0.66 0 1.32 0 2 0 C2.08090971 1.62418745 2.13914995 3.24951745 2.1875 4.875 C2.22230469 5.77992187 2.25710937 6.68484375 2.29296875 7.6171875 C2.19628906 8.40351562 2.09960938 9.18984375 2 10 C1.01 10.66 0.02 11.32 -1 12 C-1.02687279 10.18757948 -1.04633715 8.37504767 -1.0625 6.5625 C-1.07410156 5.55316406 -1.08570312 4.54382812 -1.09765625 3.50390625 C-1 1 -1 1 0 0 Z " fill="#E08683" transform="translate(93,33)"/>
<path d="M0 0 C0.80824219 0.10183594 1.61648437 0.20367187 2.44921875 0.30859375 C3.06410156 0.39238281 3.67898437 0.47617188 4.3125 0.5625 C3.3225 2.0475 3.3225 2.0475 2.3125 3.5625 C-0.9875 3.2325 -4.2875 2.9025 -7.6875 2.5625 C-7.6875 1.9025 -7.6875 1.2425 -7.6875 0.5625 C-4.59271121 -0.46909626 -3.16118607 -0.41232862 0 0 Z " fill="#3E3E53" transform="translate(55.6875,120.4375)"/>
<path d="M0 0 C1.32 0.99 2.64 1.98 4 3 C-1.445 4.485 -1.445 4.485 -7 6 C-6.67 4.68 -6.34 3.36 -6 2 C-3.1875 0.5625 -3.1875 0.5625 0 0 Z " fill="#7584B1" transform="translate(12,111)"/>
<path d="M0 0 C3.58790575 0.29899215 4.78166776 0.76986601 7.3125 3.4375 C9 6 9 6 9 8 C6.46089803 7.61479436 5.27248877 7.29902057 3.515625 5.37109375 C3.09796875 4.73300781 2.6803125 4.09492187 2.25 3.4375 C1.82203125 2.79683594 1.3940625 2.15617187 0.953125 1.49609375 C0.48132812 0.75552734 0.48132812 0.75552734 0 0 Z " fill="#313043" transform="translate(52,100)"/>
<path d="M0 0 C-0.66 1.65 -1.32 3.3 -2 5 C-1.34 5 -0.68 5 0 5 C-0.33 6.32 -0.66 7.64 -1 9 C-2.65 7.68 -4.3 6.36 -6 5 C-4.87312259 1.61936778 -3.78825335 0 0 0 Z " fill="#282A42" transform="translate(110,53)"/>
<path d="M0 0 C3.3 0 6.6 0 10 0 C9.67 0.99 9.34 1.98 9 3 C6.03 3 3.06 3 0 3 C0 2.01 0 1.02 0 0 Z " fill="#38374A" transform="translate(89,119)"/>
<path d="M0 0 C-0.99 0.495 -0.99 0.495 -2 1 C-2 1.66 -2 2.32 -2 3 C-7.94 2.01 -7.94 2.01 -14 1 C-14 0.67 -14 0.34 -14 0 C-9.02936879 -0.91297308 -4.97063121 -0.91297308 0 0 Z " fill="#4A4C62" transform="translate(117,108)"/>
<path d="M0 0 C3.02990095 1.71967351 5.76327296 3.29238306 8 6 C8 6.66 8 7.32 8 8 C4.18315774 6.44499019 1.80804268 3.96404505 -1 1 C-0.67 0.67 -0.34 0.34 0 0 Z " fill="#27273C" transform="translate(48,57)"/>
<path d="M0 0 C-3.83325617 2.70582788 -6.32538149 3.32613618 -11 3 C-7.6562111 -0.84535724 -4.83651161 -1.55459302 0 0 Z " fill="#353447" transform="translate(17,109)"/>
<path d="M0 0 C-2.22189824 2.22189824 -4.08482708 2.92598892 -7 4 C-7.33 2.35 -7.66 0.7 -8 -1 C-4.59745511 -2.2151946 -3.06748874 -1.86240388 0 0 Z " fill="#3F3F53" transform="translate(71,41)"/>
<path d="M0 0 C0 0.66 0 1.32 0 2 C-5.625 3.125 -5.625 3.125 -9 2 C-9 1.34 -9 0.68 -9 0 C-5.62182575 -0.84454356 -3.32534757 -1.10844919 0 0 Z " fill="#3D3D51" transform="translate(86,36)"/>
<path d="M0 0 C1.32 0.66 2.64 1.32 4 2 C3.34 3.32 2.68 4.64 2 6 C1.34 6 0.68 6 0 6 C0 5.34 0 4.68 0 4 C-0.66 4 -1.32 4 -2 4 C-1.34 2.68 -0.68 1.36 0 0 Z " fill="#EBBE71" transform="translate(110,54)"/>
<path d="M0 0 C-0.99 1.485 -0.99 1.485 -2 3 C-5.3 2.34 -8.6 1.68 -12 1 C-7.01222852 -1.49388574 -5.33016752 -0.88836125 0 0 Z " fill="#45465B" transform="translate(56,108)"/>
<path d="M0 0 C2.31 0.33 4.62 0.66 7 1 C7 1.99 7 2.98 7 4 C3.04 3.67 -0.92 3.34 -5 3 C-5 2.67 -5 2.34 -5 2 C-3.35 1.67 -1.7 1.34 0 1 C0 0.67 0 0.34 0 0 Z " fill="#57586A" transform="translate(21,85)"/>
<path d="M0 0 C1.32 0.66 2.64 1.32 4 2 C3.34 3.32 2.68 4.64 2 6 C0.68 5.34 -0.64 4.68 -2 4 C-1.34 2.68 -0.68 1.36 0 0 Z " fill="#ECBF71" transform="translate(78,75)"/>
<path d="M0 0 C1.32 0.33 2.64 0.66 4 1 C3.34 1 2.68 1 2 1 C1.731875 1.61875 1.46375 2.2375 1.1875 2.875 C0 5 0 5 -3 7 C-3.33 6.34 -3.66 5.68 -4 5 C-2.68 3.35 -1.36 1.7 0 0 Z " fill="#33374C" transform="translate(96,50)"/>
<path d="M0 0 C0.99 0 1.98 0 3 0 C3 1.98 3 3.96 3 6 C1.68 5.67 0.36 5.34 -1 5 C-0.67 3.35 -0.34 1.7 0 0 Z " fill="#3A3A4D" transform="translate(92,2)"/>
<path d="M0 0 C2.64 0.33 5.28 0.66 8 1 C8 1.99 8 2.98 8 4 C5.69 3.67 3.38 3.34 1 3 C0.67 2.01 0.34 1.02 0 0 Z " fill="#7E8EC0" transform="translate(54,118)"/>
<path d="M0 0 C0.33 0.66 0.66 1.32 1 2 C-3.29 1.67 -7.58 1.34 -12 1 C-12 0.67 -12 0.34 -12 0 C-7.69211856 -0.92311745 -4.29105809 -1.09771253 0 0 Z " fill="#3C3C4F" transform="translate(57,115)"/>
<path d="M0 0 C1.32 0.33 2.64 0.66 4 1 C3.34 2.32 2.68 3.64 2 5 C0.68 4.67 -0.64 4.34 -2 4 C-1.34 2.68 -0.68 1.36 0 0 Z " fill="#3C3C4E" transform="translate(105,8)"/>
<path d="M0 0 C4.75 0.75 4.75 0.75 7 3 C6.67 3.66 6.34 4.32 6 5 C4.02 4.34 2.04 3.68 0 3 C0 2.01 0 1.02 0 0 Z " fill="#3B3B4E" transform="translate(38,90)"/>
<path d="M0 0 C2.62187494 1.04874998 3.79371361 1.64931313 5.25 4.125 C5.4975 4.74375 5.745 5.3625 6 6 C3.13275314 5.42655063 2.1385485 5.1385485 0 3 C0 2.01 0 1.02 0 0 Z " fill="#333347" transform="translate(50,49)"/>
<path d="M0 0 C2.97 0.495 2.97 0.495 6 1 C6 1.66 6 2.32 6 3 C3.6875 3.625 3.6875 3.625 1 4 C0.01 3.34 -0.98 2.68 -2 2 C-1.34 2 -0.68 2 0 2 C0 1.34 0 0.68 0 0 Z " fill="#49495A" transform="translate(31,17)"/>
<path d="M0 0 C3.96 0 7.92 0 12 0 C12 0.99 12 1.98 12 3 C11.01 3 10.02 3 9 3 C9 2.34 9 1.68 9 1 C6.03 1 3.06 1 0 1 C0 0.67 0 0.34 0 0 Z " fill="#44475E" transform="translate(77,119)"/>
<path d="M0 0 C2.31 0.33 4.62 0.66 7 1 C6.67 1.66 6.34 2.32 6 3 C4.02 3 2.04 3 0 3 C0 2.01 0 1.02 0 0 Z " fill="#7B8BBB" transform="translate(72,111)"/>
<path d="M0 0 C0.66 0 1.32 0 2 0 C2.33 2.31 2.66 4.62 3 7 C2.01 7 1.02 7 0 7 C-1.125 2.25 -1.125 2.25 0 0 Z " fill="#3D3C4D" transform="translate(110,60)"/>
<path d="M0 0 C2.31 0.66 4.62 1.32 7 2 C7 2.66 7 3.32 7 4 C4.125 4.1875 4.125 4.1875 1 4 C0.34 3.01 -0.32 2.02 -1 1 C-0.67 0.67 -0.34 0.34 0 0 Z " fill="#3D3D50" transform="translate(24,15)"/>
<path d="M0 0 C1.32 0.33 2.64 0.66 4 1 C4.33 2.32 4.66 3.64 5 5 C3.68 4.67 2.36 4.34 1 4 C0.67 2.68 0.34 1.36 0 0 Z " fill="#3A3A4F" transform="translate(78,8)"/>
<path d="M0 0 C2.75 0.8125 2.75 0.8125 5 2 C5 2.66 5 3.32 5 4 C2.03 3.67 -0.94 3.34 -4 3 C-2.3125 1.375 -2.3125 1.375 0 0 Z " fill="#7988B7" transform="translate(118,118)"/>
<path d="M0 0 C0.598125 0.226875 1.19625 0.45375 1.8125 0.6875 C0.6678125 1.3371875 0.6678125 1.3371875 -0.5 2 C-2.76843768 3.42436785 -4.4074723 4.72010097 -6.1875 6.6875 C-5.78066505 4.32785727 -5.28935661 2.82815912 -3.875 0.875 C-2.1875 -0.3125 -2.1875 -0.3125 0 0 Z " fill="#313040" transform="translate(69.1875,110.3125)"/>
<path d="M0 0 C2.25 -0.25 2.25 -0.25 5 0 C7.3125 2 7.3125 2 9 4 C5.625 3.6875 5.625 3.6875 2 3 C1.34 2.01 0.68 1.02 0 0 Z " fill="#353446" transform="translate(53,109)"/>
<path d="M0 0 C0.66 0 1.32 0 2 0 C1.43628586 3.26954202 0.50037734 4.82575883 -2 7 C-2.66 6.34 -3.32 5.68 -4 5 C-2.71937515 3.2925002 -1.38232443 1.62626404 0 0 Z " fill="#D1817F" transform="translate(98,51)"/>
<path d="M0 0 C0.99 0.33 1.98 0.66 3 1 C2.814375 1.598125 2.62875 2.19625 2.4375 2.8125 C1.77906313 5.16408762 1.77906313 5.16408762 3 8 C2.01 7.67 1.02 7.34 0 7 C0 4.69 0 2.38 0 0 Z " fill="#C0CEEB" transform="translate(32,61)"/>
<path d="M0 0 C0.33 0.66 0.66 1.32 1 2 C1.99 2 2.98 2 4 2 C3.67 3.32 3.34 4.64 3 6 C2.01 6 1.02 6 0 6 C-1 3 -1 3 0 0 Z " fill="#443F51" transform="translate(87,56)"/>
<path d="M0 0 C2.875 -0.125 2.875 -0.125 6 0 C6.66 0.66 7.32 1.32 8 2 C2.25 3.125 2.25 3.125 0 2 C0 1.34 0 0.68 0 0 Z " fill="#464657" transform="translate(29,49)"/>
<path d="M0 0 C1.9375 0.8125 1.9375 0.8125 4 2 C4.33 2.99 4.66 3.98 5 5 C3.125 4.6875 3.125 4.6875 1 4 C0.34 3.01 -0.32 2.02 -1 1 C-0.67 0.67 -0.34 0.34 0 0 Z " fill="#313145" transform="translate(51,40)"/>
<path d="M0 0 C1.65 0 3.3 0 5 0 C5 0.66 5 1.32 5 2 C5.66 2.33 6.32 2.66 7 3 C4.69 3 2.38 3 0 3 C0 2.01 0 1.02 0 0 Z " fill="#333346" transform="translate(101,35)"/>
</svg>
